<?xml version="1.0" encoding="utf-8"?>
<!-- Generator: Adobe Illustrator 16.0.0, SVG Export Plug-In . SVG Version: 6.00 Build 0)  -->
<!DOCTYPE svg PUBLIC "-//W3C//DTD SVG 1.1//EN" "http://www.w3.org/Graphics/SVG/1.1/DTD/svg11.dtd">
<svg version="1.1" id="Layer_1" xmlns="http://www.w3.org/2000/svg" xmlns:xlink="http://www.w3.org/1999/xlink" x="0px" y="0px"
	 width="150px" height="148.49px" viewBox="0 0 150 148.49" enable-background="new 0 0 150 148.49" xml:space="preserve">
<path fill="#FCC52A" d="M89.152,73.82l20.52,19.34c4.481,4.246,10.141,4.48,13.915,0.235l4.95-5.424
	c3.304-3.538,3.539-9.67-0.234-13.208L80.897,30.189c-3.773-3.537-9.2-3.537-13.208,0.472L20.756,75
	c-3.773,3.537-3.538,9.434,0,12.972l5.425,5.896c4.01,4.482,8.725,3.773,13.445-0.707l20.987-19.575v67.451
	c0,4.718-4.48,8.726-9.197,7.075C21.936,138.443,0,108.962,0,75.943C0,35.615,33.021,0,75.001,0C117.216,0,150,35.615,150,75.943
	c0,32.783-20.991,61.557-51.652,72.169c-4.715,1.65-9.197-2.357-9.197-7.075V73.82H89.152z"/>
</svg>
